<svg width="32" height="32" viewBox="0 0 32 32" fill="none" xmlns="http://www.w3.org/2000/svg">
<path d="M16 3C13.4288 3 10.9154 3.76244 8.77759 5.1909C6.63975 6.61935 4.97351 8.64968 3.98957 11.0251C3.00563 13.4006 2.74819 16.0144 3.2498 18.5362C3.75141 21.0579 4.98953 23.3743 6.80762 25.1924C8.6257 27.0105 10.9421 28.2486 13.4638 28.7502C15.9856 29.2518 18.5995 28.9944 20.9749 28.0104C23.3503 27.0265 25.3807 25.3603 26.8091 23.2224C28.2376 21.0846 29 18.5712 29 16C28.9961 12.5534 27.6252 9.24905 25.1881 6.81192C22.751 4.3748 19.4466 3.0039 16 3ZM16 27C13.8244 27 11.6977 26.3549 9.88873 25.1462C8.07979 23.9375 6.66989 22.2195 5.83733 20.2095C5.00477 18.1995 4.78693 15.9878 5.21137 13.854C5.63581 11.7202 6.68345 9.7602 8.22183 8.22183C9.76021 6.68345 11.7202 5.6358 13.854 5.21136C15.9878 4.78692 18.1995 5.00476 20.2095 5.83733C22.2195 6.66989 23.9375 8.07979 25.1462 9.88873C26.3549 11.6977 27 13.8244 27 16C26.9967 18.9164 25.8367 21.7123 23.7745 23.7745C21.7123 25.8367 18.9164 26.9967 16 27ZM20.7073 19.2929C20.8948 19.4804 21.0001 19.7348 21.0001 20C21.0001 20.2653 20.8948 20.5196 20.7072 20.7072C20.5196 20.8947 20.2653 21.0001 20 21.0001C19.7348 21.0001 19.4804 20.8947 19.2929 20.7071L16 17.4142L12.7073 20.7071C12.5197 20.8947 12.2653 21.0001 12.0001 21.0001C11.7349 21.0001 11.4805 20.8947 11.2929 20.7072C11.1054 20.5196 11 20.2653 11 20C11 19.7348 11.1053 19.4804 11.2929 19.2929L14.5859 16L11.2929 12.7071C11.2 12.6143 11.1264 12.504 11.0761 12.3827C11.0259 12.2613 11 12.1313 11 12C11 11.7347 11.1054 11.4804 11.2929 11.2928C11.4805 11.1053 11.7349 10.9999 12.0001 10.9999C12.1314 10.9999 12.2615 11.0258 12.3828 11.0761C12.5042 11.1263 12.6144 11.2 12.7073 11.2929L16 14.5857L19.2928 11.2929C19.4803 11.1053 19.7347 10.9999 19.9999 10.9999C20.2651 10.9999 20.5195 11.1053 20.7071 11.2928C20.8946 11.4804 21 11.7347 21 12C21 12.2652 20.8947 12.5196 20.7071 12.7071L17.4143 16L20.7073 19.2929Z" fill="#524F4E"/>
</svg>
